<svg width="512" height="512" viewBox="0 0 512 512" xmlns="http://www.w3.org/2000/svg">
  <defs>
    <linearGradient id="grad1" x1="0%" y1="0%" x2="100%" y2="100%">
      <stop offset="0%" style="stop-color:#2563eb;stop-opacity:1" />
      <stop offset="100%" style="stop-color:#9333ea;stop-opacity:1" />
    </linearGradient>
  </defs>
  <!-- Background -->
  <rect width="512" height="512" rx="120" fill="url(#grad1)"/>
  
  <!-- Molecular Structure Icon -->
  <g transform="translate(256, 256)">
    <!-- Central atom -->
    <circle cx="0" cy="0" r="40" fill="white" opacity="0.95"/>
    
    <!-- Outer atoms (molecular structure) -->
    <circle cx="120" cy="0" r="30" fill="white" opacity="0.9"/>
    <circle cx="-120" cy="0" r="30" fill="white" opacity="0.9"/>
    <circle cx="60" cy="104" r="30" fill="white" opacity="0.9"/>
    <circle cx="-60" cy="104" r="30" fill="white" opacity="0.9"/>
    <circle cx="60" cy="-104" r="30" fill="white" opacity="0.9"/>
    <circle cx="-60" cy="-104" r="30" fill="white" opacity="0.9"/>
    
    <!-- Bonds (lines connecting atoms) -->
    <line x1="0" y1="0" x2="120" y2="0" stroke="white" stroke-width="8" opacity="0.8"/>
    <line x1="0" y1="0" x2="-120" y2="0" stroke="white" stroke-width="8" opacity="0.8"/>
    <line x1="0" y1="0" x2="60" y2="104" stroke="white" stroke-width="8" opacity="0.8"/>
    <line x1="0" y1="0" x2="-60" y2="104" stroke="white" stroke-width="8" opacity="0.8"/>
    <line x1="0" y1="0" x2="60" y2="-104" stroke="white" stroke-width="8" opacity="0.8"/>
    <line x1="0" y1="0" x2="-60" y2="-104" stroke="white" stroke-width="8" opacity="0.8"/>
    
    <!-- Quantum symbol overlay (small atom symbol) -->
    <circle cx="0" cy="0" r="15" fill="#9333ea" opacity="0.8"/>
    <circle cx="0" cy="0" r="8" fill="white"/>
  </g>
  
  <!-- Text -->
  <text x="256" y="420" font-family="Arial, sans-serif" font-size="72" font-weight="bold" fill="white" text-anchor="middle" opacity="0.95">MoleculeAI</text>
</svg>

